<?xml version="1.0" standalone="no"?>
<!DOCTYPE svg PUBLIC "-//W3C//DTD SVG 20010904//EN"
 "http://www.w3.org/TR/2001/REC-SVG-20010904/DTD/svg10.dtd">
<svg version="1.0" xmlns="http://www.w3.org/2000/svg"
 width="500.000000pt" height="307.000000pt" viewBox="0 0 500.000000 307.000000"
 preserveAspectRatio="xMidYMid meet">

<g transform="translate(0.000000,307.000000) scale(0.100000,-0.100000)"
fill="#000000" stroke="none">
<path d="M0 3066 c0 -2 23 -48 51 -102 29 -55 98 -191 155 -304 57 -113 108
-211 114 -217 8 -10 130 -13 543 -13 505 0 536 -1 607 -20 123 -34 209 -105
260 -215 18 -39 24 -73 28 -153 4 -92 2 -111 -19 -165 -51 -130 -190 -234
-345 -257 -39 -5 -307 -10 -626 -10 l-558 0 0 -805 0 -805 290 0 290 0 0 516
c0 311 4 514 9 512 9 -3 77 -79 260 -293 47 -55 88 -102 91 -105 3 -3 48 -54
100 -115 52 -60 109 -126 126 -145 18 -19 52 -58 76 -86 24 -29 88 -104 143
-168 l100 -116 448 0 c246 0 447 3 447 6 0 3 -46 56 -103 117 -56 62 -120 132
-142 156 -22 25 -70 77 -106 115 -36 39 -139 152 -229 250 -90 99 -171 187
-179 196 -62 65 -197 214 -199 220 -2 5 16 11 38 15 95 16 315 113 384 169 15
12 43 34 64 51 30 24 96 94 157 168 17 20 70 109 94 156 129 256 120 656 -20
928 -133 259 -365 430 -674 496 -97 21 -127 21 -887 25 -434 1 -788 1 -788 -2z"/>
<path d="M2675 3057 c-3 -7 -4 -136 -3 -287 l3 -275 308 -3 307 -2 0 290 0
290 -305 0 c-237 0 -307 -3 -310 -13z"/>
<path d="M3520 1535 l0 -1535 315 0 315 0 -2 1532 -3 1533 -312 3 -313 2 0
-1535z"/>
<path d="M4370 1535 l0 -1535 315 0 315 0 0 1535 0 1535 -315 0 -315 0 0
-1535z"/>
<path d="M2677 2263 c-4 -3 -7 -514 -7 -1135 l0 -1128 310 0 310 0 0 1135 0
1135 -303 0 c-167 0 -307 -3 -310 -7z"/>
</g>
</svg>
