<svg width="230" height="230" viewBox="0 0 230 230" fill="none" xmlns="http://www.w3.org/2000/svg">
<path d="M14.7658 66.0293C46.3459 83.4446 77.5428 102.123 108.866 120.217L108.851 141.963L33.6188 98.6692L33.5946 163.45L45.6717 170.493L108.851 207.025L108.861 228.865L14.6445 174.454L14.7658 66.0293Z" fill="black"/>
<path fill-rule="evenodd" clip-rule="evenodd" d="M152.176 22.757C139.649 15.3527 127.061 8.10367 114.411 1.00977C104.866 6.53578 95.3323 12.1269 85.7942 17.7205C64.0909 30.4482 42.366 43.1886 20.4375 55.2034C30.8364 61.2224 41.3033 67.1472 51.7776 73.0763C72.8438 85.001 93.9405 96.9429 114.576 109.703L133.56 98.6641L115.697 88.4064C113.724 87.2796 111.756 86.1342 109.786 84.9881C105.167 82.3013 100.543 79.6111 95.8543 77.1496C98.9332 75.3354 102.646 73.0061 106.698 70.4649C119.801 62.2454 136.439 51.8083 146.583 49.4077C151.725 48.1952 156.715 48.4135 161.706 50.368C168.543 53.0433 175.411 57.3423 182.081 61.518C184.662 63.1335 187.213 64.7306 189.722 66.208L208.71 55.1695C205.596 53.3984 202.217 51.2812 198.695 49.0745C188.655 42.7847 177.455 35.7677 167.929 33.9654C164.082 33.2378 159.914 33.3799 155.883 33.5174C154.675 33.5586 153.478 33.5994 152.307 33.6162L152.176 22.757ZM123.962 28.3042C121.508 26.3254 116.478 23.1632 113.539 23.4299L58.4883 55.2021C58.8164 55.3981 59.1445 55.5941 59.4725 55.79C64.6827 58.9025 69.8902 62.0133 75.1878 64.8924C75.382 64.9694 75.573 65.0687 75.7639 65.1681C76.1501 65.3689 76.5363 65.5697 76.9484 65.5859C80.3 65.7169 112.263 46.2248 117.453 42.9317C121.222 40.5406 124.568 37.9847 126.125 33.028C125.849 30.6952 125.66 29.667 123.962 28.3042Z" fill="black"/>
<path fill-rule="evenodd" clip-rule="evenodd" d="M214.998 100.984C215.342 89.1434 215.846 71.816 214.235 66.0293C196.186 76.9105 177.94 87.3232 159.694 97.736C146.653 105.178 133.613 112.62 120.645 120.233V228.989L139.604 217.984V174.47L188.315 146.456L195.843 151.185L195.848 185.489L214.764 174.615L214.822 131.213L205.248 125.708L214.793 109.592C214.809 107.491 214.896 104.476 214.998 100.984ZM195.943 109.061C196.093 105.738 196.314 100.814 195.007 99.1055L139.607 131.183C139.6 132.576 139.526 134.255 139.446 136.066C139.207 141.485 138.916 148.089 140.203 151.771L140.494 152.096C156.41 143.062 172.264 133.875 188.056 124.534L195.87 111.075C195.876 110.534 195.908 109.841 195.943 109.061Z" fill="black"/>
</svg>
