<svg width="230" height="230" viewBox="0 0 230 230" fill="none" xmlns="http://www.w3.org/2000/svg">
<path d="M115.194 1.30469C120.874 2.45898 128.92 8.86093 134.241 12.0037C121.776 19.3822 109.249 26.6055 96.6611 33.6735L171.69 77.0953C165.768 81.1644 159.23 84.3848 153.06 87.9011L116.096 66.7115L77.9973 44.649L40.2961 66.3818L21.6953 55.3965C52.2083 36.1809 84.1231 19.2254 115.194 1.30469Z" fill="black"/>
<path d="M90.1574 109.305L109.035 120.096L109.025 228.697L21.5648 178.296L14.7018 174.328C14.6662 159.875 14.7777 145.426 15.0364 130.979C21.3223 134.554 27.7151 137.983 33.7682 142.115L33.7633 163.474C52.6567 174.251 71.492 185.175 90.269 196.245C89.7403 167.281 90.0604 138.269 90.1574 109.305Z" fill="black"/>
<path d="M214.257 65.3047C216.231 70.7367 214.82 160.025 214.805 173.779L120.695 228.099V119.44L139.655 108.479V135.537V195.401L158.164 184.585C158.474 155.665 158.207 126.696 158.212 97.7704L177.361 86.761C177.002 115.662 177.405 144.602 177.172 173.513C183.467 170.108 189.666 166.393 195.894 162.804V75.9311C202.073 72.5555 208.15 68.8646 214.257 65.3047Z" fill="black"/>
</svg>
