<svg width="230" height="230" viewBox="0 0 230 230" fill="none" xmlns="http://www.w3.org/2000/svg">
<path d="M14.9407 66.2246C26.1012 71.9243 37.0579 78.7982 48.0001 85.1153L108.823 120.307L108.764 142.01L71.1747 120.433L71.1457 185.253L108.73 207L108.692 228.777C77.1648 211.472 46.0649 192.678 14.8438 174.563L14.897 152.928C27.4738 159.892 39.9099 167.289 52.3993 174.481L52.3799 109.53C39.905 102.478 26.8821 95.7319 14.9116 87.5257L14.9407 66.2246Z" fill="black"/>
<path d="M114.711 1.22461C122.079 3.3683 133.215 11.5841 140.311 15.6872L208.981 55.4425L190.123 66.4714L115.06 23.0058L96.2558 33.734L171.26 77.0928C165.338 81.2687 158.703 84.5133 152.499 88.0732C140.165 80.7643 127.695 73.7658 115.288 66.6363L77.4755 44.7046L58.9814 55.5056L133.976 98.8547L114.997 109.874C83.8003 91.3324 52.2638 73.5039 20.8438 55.5298L114.711 1.22461Z" fill="black"/>
<path fill-rule="evenodd" clip-rule="evenodd" d="M214.175 66.3667L213.409 66.2246C203.528 71.938 193.617 77.5995 183.702 83.2627C162.674 95.2736 141.633 107.292 120.85 119.83L120.844 228.44C127.093 224.742 133.366 221.106 139.663 217.532V201.855L139.748 174.119C144.906 171.12 150.059 168.096 155.214 165.07C168.787 157.105 182.371 149.133 196.088 141.594L196.078 184.704C202.376 181.201 208.648 177.63 214.894 173.99C214.893 171.844 214.923 167.132 214.962 160.821C215.145 131.78 215.54 68.8815 214.175 66.3667ZM196.205 115.51C196.492 109.67 196.907 101.248 195.335 98.3984L139.677 130.639C139.669 131.554 139.617 132.846 139.556 134.35C139.319 140.183 138.954 149.191 140.551 151.666L196.039 119.613C196.054 118.563 196.124 117.137 196.205 115.51Z" fill="black"/>
</svg>
