<?xml version="1.0" encoding="UTF-8"?>
<svg version="1.1" xmlns="http://www.w3.org/2000/svg" width="1024" height="512">
<path d="M0 0 C337.92 0 675.84 0 1024 0 C1024 168.96 1024 337.92 1024 512 C686.08 512 348.16 512 0 512 C0 343.04 0 174.08 0 0 Z " fill="#FEFEFE" transform="translate(0,0)"/>
<path d="M0 0 C2.81505069 2.22170403 5.38714475 4.53504221 8 7 C8.33 2.38 8.66 -2.24 9 -7 C19.56 -7 30.12 -7 41 -7 C41.11355037 9.16153667 41.20536516 25.32272458 41.25906086 41.48455143 C41.28467262 48.99139407 41.31948994 56.49796844 41.37719727 64.00463867 C41.42756177 70.55935434 41.45941412 77.11387547 41.47044247 83.66877931 C41.47687328 87.12887397 41.49161382 90.58841288 41.52865028 94.04832649 C41.7921644 121.78910303 39.31382211 149.57509149 19.39453125 170.68359375 C6.09297477 183.55116796 -12.16313455 188.40354794 -30.30908203 188.37109375 C-48.03259118 187.90128569 -64.28368894 181.512702 -77 169 C-87.00742777 157.62400563 -87.00742777 157.62400563 -89 152 C-88.83935547 150.046875 -88.83935547 150.046875 -88 148 C-85.93041992 146.61206055 -85.93041992 146.61206055 -83.23046875 145.38671875 C-82.25916016 144.94392578 -81.28785156 144.50113281 -80.28710938 144.04492188 C-79.26423828 143.59697266 -78.24136719 143.14902344 -77.1875 142.6875 C-75.6705957 141.98657227 -75.6705957 141.98657227 -74.12304688 141.27148438 C-66.63603867 137.92138222 -66.63603867 137.92138222 -63.76806641 138.27587891 C-61.37673913 139.25525984 -60.60317421 140.5456298 -59.1875 142.6875 C-53.61111363 150.4417288 -47.48622451 154.99221408 -38 157 C-27.15127911 158.25602582 -16.00441358 157.62666114 -6.6640625 151.45703125 C-4.5749849 149.76014108 -2.78822392 148.00914669 -1 146 C-0.51917969 145.46117187 -0.03835938 144.92234375 0.45703125 144.3671875 C7.7360369 134.55922219 8.73177372 119.68805247 8 108 C7.44570313 108.75152344 6.89140625 109.50304687 6.3203125 110.27734375 C-0.26525003 118.00484726 -11.15229536 122.90222519 -21 125 C-24.87164026 125.24968561 -28.7461166 125.23123877 -32.625 125.25 C-33.66785156 125.270625 -34.71070313 125.29125 -35.78515625 125.3125 C-50.54345397 125.38619936 -64.08954704 119.5401134 -74.8671875 109.37890625 C-88.8500731 93.78261077 -94.24278811 77.56322197 -94.375 56.875 C-94.38869629 55.79130127 -94.40239258 54.70760254 -94.41650391 53.59106445 C-94.35771905 43.10114467 -92.28148149 33.36679963 -87.5 24 C-87.15743164 23.32775391 -86.81486328 22.65550781 -86.46191406 21.96289062 C-78.80492276 7.67978727 -66.1072421 -2.843719 -50.56469727 -7.61303711 C-33.48295594 -12.08180542 -14.7296662 -9.75980936 0 0 Z " fill="#030303" transform="translate(602,213)"/>
<path d="M0 0 C1.32040283 0.01522705 1.32040283 0.01522705 2.66748047 0.03076172 C16.14976752 0.35325662 27.58128768 5.64229664 37.0625 15.375 C39.47199357 18.31358117 41.0625 20.44333592 41.0625 24.375 C41.7225 24.375 42.3825 24.375 43.0625 24.375 C43.31386719 23.65054688 43.56523438 22.92609375 43.82421875 22.1796875 C48.19204347 12.2866334 57.40035993 6.39043483 67.0625 2.375 C73.09348035 0.51596585 78.58189679 0.02102287 84.875 0.0625 C86.19721558 0.06987183 86.19721558 0.06987183 87.54614258 0.07739258 C97.87521842 0.26301324 106.45421475 2.55401283 115.0625 8.375 C116.18978516 9.13683594 116.18978516 9.13683594 117.33984375 9.9140625 C122.42003583 13.85663892 125.5187684 18.30487201 128.4375 23.9375 C128.75920166 24.54311768 129.08090332 25.14873535 129.41235352 25.77270508 C135.70216549 38.83948603 135.48089518 53.29163735 135.35546875 67.43359375 C135.34985837 69.31787271 135.34559511 71.2021561 135.34260559 73.08644104 C135.3312702 77.99366809 135.3019034 82.90061949 135.26849365 87.80773926 C135.23754591 92.83598097 135.224048 97.86426818 135.20898438 102.89257812 C135.17702031 112.72019133 135.12434789 122.54752939 135.0625 132.375 C124.5025 132.375 113.9425 132.375 103.0625 132.375 C103.0531543 130.00393066 103.04380859 127.63286133 103.03417969 125.18994141 C103.00030431 117.32680751 102.94469703 109.46393314 102.87859726 101.60100746 C102.83920818 96.83701898 102.80697785 92.07321298 102.79150391 87.30908203 C102.77628064 82.70525691 102.74173534 78.10193373 102.69419098 73.49833298 C102.6794354 71.74825801 102.67146235 69.99811136 102.67061615 68.2479744 C102.66013464 57.43278932 102.06836553 49.05144255 96.375 39.5625 C89.83721628 33.37810999 83.80984512 31.69315301 74.88256836 31.84960938 C67.69399964 32.21044199 63.6354513 34.15290569 58.3125 38.75 C52.20388907 45.87671275 49.77184518 51.94867467 49.74365234 61.30810547 C49.73360672 62.0795137 49.7235611 62.85092194 49.71321106 63.64570618 C49.68249148 66.17785952 49.66537542 68.70990768 49.6484375 71.2421875 C49.6297168 73.00482074 49.61014271 74.7674451 49.5897522 76.53005981 C49.53852026 81.15611528 49.4988468 85.78219977 49.46160889 90.40838623 C49.4215131 95.13430916 49.37044622 99.86011228 49.3203125 104.5859375 C49.22365901 113.84888235 49.14023515 123.11187704 49.0625 132.375 C38.1725 132.375 27.2825 132.375 16.0625 132.375 C16.04791748 130.02898682 16.03333496 127.68297363 16.01831055 125.26586914 C15.96783877 117.49056434 15.90122179 109.71545715 15.82678509 101.94034672 C15.78217137 97.22904758 15.74289566 92.51783312 15.71606445 87.80639648 C15.68994139 83.25451185 15.64947602 78.70295467 15.59931374 74.15127373 C15.58270568 72.41990691 15.57115383 70.68848354 15.56488609 68.95704842 C15.51976511 57.63229814 15.44416321 47.71063288 8.0625 38.375 C1.71855102 32.5190471 -3.94689175 31.91191846 -12.359375 32.0703125 C-20.59886188 32.77192819 -26.02804177 35.62194223 -31.3671875 41.88671875 C-31.88539063 42.70785156 -32.40359375 43.52898437 -32.9375 44.375 C-33.26978607 44.89419006 -33.60207214 45.41338013 -33.94442749 45.94830322 C-38.25471014 53.91787333 -37.54257923 62.73748529 -37.546875 71.53515625 C-37.56187407 73.293508 -37.57860482 75.05184575 -37.59698486 76.81016541 C-37.64047694 81.41157721 -37.660617 86.01279902 -37.67572021 90.61437988 C-37.69535706 95.32050731 -37.73731949 100.0264315 -37.77734375 104.73242188 C-37.85244934 113.94658603 -37.90079304 123.16060279 -37.9375 132.375 C-48.4975 132.375 -59.0575 132.375 -69.9375 132.375 C-69.9375 89.475 -69.9375 46.575 -69.9375 2.375 C-59.3775 2.375 -48.8175 2.375 -37.9375 2.375 C-37.4425 11.285 -37.4425 11.285 -36.9375 20.375 C-35.6175 18.395 -34.2975 16.415 -32.9375 14.375 C-24.09373504 4.26784004 -13.24205855 -0.22125199 0 0 Z " fill="#030303" transform="translate(738.9375,203.625)"/>
<path d="M0 0 C1.69962891 -0.01836914 1.69962891 -0.01836914 3.43359375 -0.03710938 C17.7853324 -0.06205446 29.55013004 3.59829743 41.125 12.1875 C41.74246094 12.62707031 42.35992188 13.06664062 42.99609375 13.51953125 C52.98265377 21.23742953 58.44755346 33.93183394 60.125 46.1875 C60.2114973 49.05487273 60.25169454 51.89662579 60.23852539 54.76318359 C60.23867142 55.60286682 60.23881744 56.44255005 60.2389679 57.30767822 C60.23827445 60.06712479 60.23050874 62.82650281 60.22265625 65.5859375 C60.22079005 67.50550296 60.2193671 69.4250689 60.21836853 71.34463501 C60.21455925 76.3850436 60.20474257 81.42542316 60.19366455 86.46582031 C60.18341623 91.6139283 60.17886359 96.76204099 60.17382812 101.91015625 C60.16311883 112.00261894 60.14553494 122.09505251 60.125 132.1875 C49.565 132.1875 39.005 132.1875 28.125 132.1875 C27.795 126.9075 27.465 121.6275 27.125 116.1875 C25.475 117.8375 23.825 119.4875 22.125 121.1875 C10.62463461 131.28064768 -2.35117192 134.54937732 -17.3125 134.5 C-18.77139648 134.52416992 -18.77139648 134.52416992 -20.25976562 134.54882812 C-31.65257847 134.55643855 -40.95153946 131.35552568 -49.875 124.1875 C-58.50031984 114.94508411 -62.24106168 106.74235686 -62.1875 94.1875 C-62.20361328 93.43210937 -62.21972656 92.67671875 -62.23632812 91.8984375 C-62.24412846 82.81884721 -58.75250239 75.06261527 -52.875 68.1875 C-38.66278151 55.21214124 -22.47818081 53.30726088 -4.12548828 53.94775391 C6.99241187 54.76777628 17.79307696 58.14714936 28.125 62.1875 C27.79257797 51.43364722 26.3950078 43.38254463 19.125 35.1875 C9.82209678 28.05166242 -0.70073773 27.89348443 -11.875 29.1875 C-19.65024913 30.64232832 -26.14484985 33.51829603 -32.75390625 37.8203125 C-34.74238479 39.10202058 -36.74103981 40.17132848 -38.875 41.1875 C-42.96593457 37.19219767 -47.00481714 33.14800569 -50.875 28.9375 C-51.74125 28.00164062 -51.74125 28.00164062 -52.625 27.046875 C-53.875 25.1875 -53.875 25.1875 -53.875 21.1875 C-52.26625394 19.26738374 -50.76448858 17.80069544 -48.875 16.1875 C-48.2665625 15.63835937 -47.658125 15.08921875 -47.03125 14.5234375 C-33.57511348 3.12588903 -17.12352943 0.00967431 0 0 Z " fill="#040404" transform="translate(953.875,203.8125)"/>
<path d="M0 0 C5.06478269 0.67210386 9.6319883 2.09481408 14.4375 3.75 C15.22737305 4.01731934 16.01724609 4.28463867 16.83105469 4.56005859 C19.22207678 5.36939411 21.61120507 6.18411763 24 7 C31.18923634 9.44891301 38.36312888 11.85802032 45.6875 13.875 C51.4733106 15.48615583 57.09727589 17.41127554 62.75 19.4375 C69.09322637 21.70635881 75.42787676 23.76448743 81.9375 25.5 C91.24785704 27.98551438 100.3405128 31.03031046 109.45996094 34.13574219 C113.34407987 35.45732821 117.23365015 36.7623798 121.125 38.0625 C121.85114502 38.30532715 122.57729004 38.5481543 123.32543945 38.79833984 C129.56255847 40.87438278 135.82844594 42.85420395 142.1015625 44.81835938 C146.96315398 46.3441142 151.79879776 47.92823046 156.625 49.5625 C162.59353096 51.57126364 168.60083946 53.37361522 174.64916992 55.12084961 C180.68751459 56.87734603 186.63812205 58.84625768 192.59375 60.86328125 C197.03325012 62.34481168 201.50468579 63.69900318 206 65 C204.38970907 69.09892237 201.42183917 71.76205641 198.3125 74.75 C194.25426378 78.72154492 190.38899995 82.74723363 186.70703125 87.07421875 C184.01021987 90.11661695 181.08465604 92.92325809 178.19140625 95.77734375 C175.57898932 98.4270144 173.16697379 101.21172803 170.74609375 104.03515625 C168.34790999 106.73378361 165.78388476 109.24314575 163.1875 111.75 C161.29924898 113.69220105 159.5209896 115.67421473 157.74609375 117.71875 C153.95731492 122.08115703 150.02732928 126.29782569 146.0625 130.5 C145.03672852 131.59054688 145.03672852 131.59054688 143.99023438 132.703125 C142.32805459 134.4699175 140.66438955 136.23528988 139 138 C133.23401421 133.24632483 127.96826366 128.08837084 122.70850754 122.78367233 C121.17998525 121.24222349 119.64821824 119.70406331 118.1156311 118.16665649 C114.86591151 114.90559363 111.62016612 111.64059335 108.375 108.375 C104.60397572 104.58029451 100.83129671 100.78726456 97.05437088 96.99843216 C95.55177679 95.48939824 94.05224656 93.97736565 92.55282593 92.46517944 C91.63482208 91.54387238 90.71681824 90.62256531 89.77099609 89.67333984 C88.96826263 88.86536957 88.16552917 88.05739929 87.33847046 87.22494507 C84.99422146 84.99450199 82.53874088 83.00334255 80 81 C78.9027709 79.82311258 77.83841919 78.61454246 76.8125 77.375 C71.52277293 71.19981862 65.83134626 65.39313054 59.63061523 60.13061523 C53.54161996 54.81395601 47.89470869 49.0386826 42.1875 43.3203125 C40.96596613 42.09945328 39.74428394 40.87874246 38.52246094 39.65817261 C35.9793309 37.11650805 33.43799668 34.57306538 30.89794922 32.02832031 C27.63503459 28.75966635 24.36759334 25.49557973 21.09883118 22.23277473 C18.58356501 19.72110915 16.07066927 17.20708293 13.5585022 14.69231796 C12.35350016 13.48664745 11.14775101 12.28172316 9.94125366 11.07754898 C8.26570374 9.40452186 6.59336398 7.72835249 4.921875 6.05126953 C4.42015274 5.5515715 3.91843048 5.05187347 3.40150452 4.53703308 C0 1.1142713 0 1.1142713 0 0 Z " fill="#010101" transform="translate(11,112)"/>
<path d="M0 0 C5.34090184 4.96749133 8.28750458 11.98751374 10.5625 18.8125 C10.5625 21.7825 10.5625 24.7525 10.5625 27.8125 C-0.3275 27.8125 -11.2175 27.8125 -22.4375 27.8125 C-23.0975 25.5025 -23.7575 23.1925 -24.4375 20.8125 C-28.21723745 16.21552202 -31.60521186 14.12082504 -37.5234375 13.4765625 C-44.39825726 13.39491381 -48.93168223 13.53019729 -54.4375 17.8125 C-57.12578186 21.84492279 -57.22128443 25.07644091 -56.4375 29.8125 C-52.95779928 34.97592688 -48.18667701 36.24454263 -42.4375 37.8125 C-41.0843842 38.1957287 -39.73154282 38.57992699 -38.37890625 38.96484375 C-29.38994206 41.51829366 -29.38994206 41.51829366 -20.32421875 43.77734375 C-11.84966228 45.79427088 -5.4260169 48.60374122 1.5625 53.8125 C2.46935547 54.42931641 2.46935547 54.42931641 3.39453125 55.05859375 C9.28479821 59.36818148 12.83564983 66.53924771 14.27734375 73.59375 C15.59482236 83.84481643 14.7521325 92.91629621 8.64453125 101.51171875 C-1.50133463 113.52514224 -16.86738174 120.36087978 -32.4375 121.8125 C-50.75700307 123.00445966 -68.44745328 119.77014407 -82.8125 107.5 C-90.29002115 100.31053745 -94.65736823 93.11852604 -96.4375 82.8125 C-96.4375 81.1625 -96.4375 79.5125 -96.4375 77.8125 C-85.5475 77.8125 -74.6575 77.8125 -63.4375 77.8125 C-62.7775 80.4525 -62.1175 83.0925 -61.4375 85.8125 C-58.02728904 90.0752637 -53.95067702 93.28649674 -48.41064453 94.1159668 C-46.13991098 94.25149882 -43.8995509 94.2796629 -41.625 94.25 C-40.82763428 94.24315186 -40.03026855 94.23630371 -39.20874023 94.22924805 C-33.35993808 94.06962113 -28.22749101 93.45861256 -23.4375 89.8125 C-20.83888827 86.89890503 -20.48979131 85.17853917 -19.9375 81.3125 C-20.17106394 77.72802027 -20.17106394 77.72802027 -22.4375 75.0625 C-28.65668848 70.39810864 -36.23165488 69.03772184 -43.6875 67.375 C-60.03531844 63.5883216 -76.81804575 59.49877111 -87.046875 45.09765625 C-92.52638016 36.09341322 -94.1062339 26.43784035 -91.84765625 16.1171875 C-88.20202306 5.39868993 -79.09715921 -2.75032655 -69.4375 -8.1875 C-47.36856138 -18.29729311 -18.99939134 -14.68951051 0 0 Z " fill="#040404" transform="translate(422.4375,217.1875)"/>
<path d="M0 0 C0.66 0 1.32 0 2 0 C3.61630824 6.8746977 5.18655036 13.74718451 6.53515625 20.6796875 C6.98440908 22.92217641 7.48488677 25.14683578 8 27.375 C8.78525739 30.8386547 9.38548793 34.30425803 9.9375 37.8125 C10.57827046 41.77136868 11.36259042 45.62000868 12.375 49.5 C14.86802432 59.12131998 16.6153867 68.91327377 18.52050781 78.6640625 C19.03202098 81.27653655 19.54719809 83.88827106 20.0625 86.5 C20.21259521 87.27537109 20.36269043 88.05074219 20.51733398 88.84960938 C21.37495304 93.19426613 22.35918683 97.48282473 23.45703125 101.7734375 C25.08443322 108.18091787 26.37339574 114.63520016 27.625 121.125 C28.05203874 123.33645063 28.48159388 125.54741732 28.9140625 127.7578125 C29.0992041 128.7183252 29.2843457 129.67883789 29.47509766 130.66845703 C29.90372014 133.00731305 29.90372014 133.00731305 31 135 C31.52701745 138.20639189 31.96099903 141.42140469 32.40234375 144.640625 C32.89929604 147.93681976 32.89929604 147.93681976 33.94140625 150.734375 C35.15680101 154.48371088 35.79694321 158.19184574 36.46875 162.06982422 C37.32095291 166.7702559 38.41524754 171.41121293 39.5 176.0625 C44.05058383 195.65758975 44.05058383 195.65758975 44.625 203.125 C44.69976562 204.05570313 44.77453125 204.98640625 44.8515625 205.9453125 C44.90054688 206.62335938 44.94953125 207.30140625 45 208 C41.3468058 204.43895845 37.96387382 200.7248758 34.6875 196.8125 C34.20458496 196.23862549 33.72166992 195.66475098 33.22412109 195.07348633 C29.82985599 191.02595765 26.50529187 186.92774478 23.22265625 182.7890625 C20.35853172 179.19506441 17.46170086 175.62822672 14.5625 172.0625 C13.9967627 171.36664795 13.43102539 170.6707959 12.84814453 169.95385742 C9.73815886 166.13092306 6.62258314 162.31265676 3.5 158.5 C-12.5843949 138.85111465 -12.5843949 138.85111465 -19.625 129.8125 C-23.58642857 124.72935864 -27.6840486 119.78827552 -31.87548828 114.89379883 C-35.18840433 111.00715398 -38.36662495 107.03236257 -41.5 103 C-45.56462039 97.77001923 -49.75883454 92.67709529 -54.06176758 87.6418457 C-58.15213243 82.84883238 -62.10059154 77.94967894 -66 73 C-62.8855829 66.14828239 -57.05183745 60.98841178 -51.75 55.78125 C-49.91757513 53.91610326 -48.20646865 51.98072254 -46.5 50 C-43.71760668 46.77043633 -40.78980571 43.76677347 -37.75 40.78125 C-35.91757513 38.91610326 -34.20646865 36.98072254 -32.5 35 C-30.2544206 32.39352391 -27.95448488 29.91065479 -25.5 27.5 C-23.06610268 25.10946833 -20.78644441 22.64953738 -18.5625 20.0625 C-15.53028108 16.54186998 -12.30846064 13.28300421 -8.9921875 10.03125 C-6.31935875 7.30601284 -3.87694838 4.40933292 -1.4453125 1.46875 C-0.96835938 0.9840625 -0.49140625 0.499375 0 0 Z " fill="#020202" transform="translate(224,186)"/>
<path d="M0 0 C1.12148438 0.81984375 1.12148438 0.81984375 2.265625 1.65625 C3.11640625 2.2646875 3.9671875 2.873125 4.84375 3.5 C12.91790981 9.97866715 18.52959218 18.42703193 19.97265625 28.7734375 C20.95019246 40.83342542 16.63834834 50.93024672 9.1875 60.2578125 C1.84171883 67.52197388 -7.71644575 70.87487141 -17.921875 71.21875 C-27.20615483 70.82718215 -34.16908705 68.03162367 -40.921875 61.6328125 C-49.53928126 52.2353824 -53.55685673 42.16545338 -53.18359375 29.41015625 C-51.99100913 19.44429698 -47.08252736 10.12780123 -39.375 3.68359375 C-28.60283776 -4.26495626 -12.04039758 -7.37167199 0 0 Z " fill="#FBFBFB" transform="translate(591.734375,237.34375)"/>
<path d="M0 0 C10.56 0 21.12 0 32 0 C32 42.9 32 85.8 32 130 C21.44 130 10.88 130 0 130 C0 87.1 0 44.2 0 0 Z " fill="#040404" transform="translate(455,206)"/>
<path d="M0 0 C13.05624419 -0.39532258 26.11104754 -0.69664999 39.17207527 -0.88080692 C45.23846101 -0.96923677 51.30073013 -1.08897101 57.36474609 -1.2824707 C63.2266203 -1.46833172 69.08455916 -1.56905257 74.9491539 -1.61291313 C77.17666462 -1.64412927 79.40397904 -1.70509933 81.62979507 -1.79741096 C98.55013064 -2.4707073 98.55013064 -2.4707073 104.28002167 1.63289261 C108.39914743 5.57624009 111.5814891 10.03790766 114.61011887 14.84805489 C116.74846322 18.15884138 119.2151521 21.18596184 121.6875 24.25 C122.57587641 25.38542372 123.46281024 26.52197911 124.34765625 27.66015625 C127.90461813 32.17724726 131.64333611 36.53749905 135.375 40.91015625 C138.56962078 44.65706345 141.68456685 48.46728266 144.7890625 52.2890625 C146.35567782 54.20996539 147.93513633 56.1204265 149.5234375 58.0234375 C150.34070313 59.00570312 151.15796875 59.98796875 152 61 C153.11375 62.3303125 153.11375 62.3303125 154.25 63.6875 C156 66 156 66 157 69 C153.4965541 67.92201664 150.15281834 66.65993612 146.81616211 65.15405273 C142.35500452 63.15456726 137.87196833 61.21165563 133.37890625 59.28515625 C131.7675153 58.59194291 130.15618915 57.8985789 128.54492188 57.20507812 C126.05326101 56.13309305 123.56124895 55.0619638 121.06811523 53.9934082 C105.35521425 47.25620951 105.35521425 47.25620951 99.65234375 44.30859375 C95.10135472 41.96297914 90.39950068 40.20332925 85.60986328 38.40625 C78.61576449 35.68164503 71.79005611 32.55951408 64.9375 29.5 C62.00993357 28.19606906 59.08152755 26.89404351 56.15234375 25.59375 C55.44935654 25.28166595 54.74636932 24.96958191 54.02207947 24.64804077 C46.85986636 21.47851427 39.63101508 18.48060809 32.37890625 15.5234375 C31.44949219 15.14445312 30.52007812 14.76546875 29.5625 14.375 C28.61503906 13.99085938 27.66757813 13.60671875 26.69140625 13.2109375 C24 12 24 12 21.5546875 10.5078125 C18.64529985 8.79065098 15.7320046 7.66476494 12.5625 6.5 C8.22031476 4.90051736 4.1089079 3.13192205 0 1 C0 0.67 0 0.34 0 0 Z " fill="#050505" transform="translate(99,328)"/>
<path d="M0 0 C-1.25333386 3.76000157 -3.14188947 5.27624509 -6 8 C-11.30976134 13.232932 -16.50719047 18.47093219 -21.35546875 24.13671875 C-23.5439537 26.61630858 -25.89544013 28.9062118 -28.25390625 31.22265625 C-30.06477643 33.06593574 -31.75321354 34.97822799 -33.4375 36.9375 C-36.48806253 40.48053002 -39.73603581 43.75672141 -43.06640625 47.03515625 C-45.87813174 49.89232376 -48.4343721 52.92124652 -51 56 C-57.36243391 54.67786336 -63.46236277 53.00059854 -69.62890625 50.9609375 C-70.50401352 50.67521881 -71.37912079 50.38950012 -72.28074646 50.09512329 C-75.0426469 49.19237753 -77.80258538 48.28379649 -80.5625 47.375 C-82.44844045 46.75742376 -84.33450706 46.14023261 -86.22070312 45.5234375 C-90.81527145 44.0200699 -95.40809114 42.51147024 -100 41 C-100 40.01 -100 39.02 -100 38 C-99.23816406 37.75765625 -98.47632813 37.5153125 -97.69140625 37.265625 C-92.17460326 35.47490243 -86.8586518 33.56366826 -81.59765625 31.12890625 C-78.17604927 29.64192217 -74.68589704 28.35466764 -71.1875 27.0625 C-66.52110967 25.33694966 -61.89180247 23.57349976 -57.3125 21.625 C-49.1109914 18.15168352 -40.75562651 15.06970824 -32.42626953 11.91943359 C-28.28192731 10.34893724 -24.14684563 8.75474766 -20.01171875 7.16015625 C-17.80710255 6.31090721 -15.60118804 5.46502641 -13.39453125 4.62109375 C-11.62142578 3.94240234 -11.62142578 3.94240234 -9.8125 3.25 C-8.74644531 2.84265625 -7.68039062 2.4353125 -6.58203125 2.015625 C-1.45769231 0 -1.45769231 0 0 0 Z " fill="#070707" transform="translate(278,113)"/>
<path d="M0 0 C0.42760342 2.92195671 0.49412703 5.12351277 -0.984375 7.74609375 C-7.86416731 16.42313518 -20.12242654 22.47034123 -31 24 C-46.79220779 25.004329 -46.79220779 25.004329 -54 21 C-57.73626703 17.47078051 -60.14000806 14.04088428 -60.5 8.875 C-60.41908635 3.85026206 -58.66755674 1.21481409 -55.1484375 -2.26953125 C-39.56589138 -14.82056386 -16.2883456 -7.1947226 0 0 Z " fill="#F9F9F9" transform="translate(982,288)"/>
<path d="M0 0 C3.1828864 1.21254461 6.10264382 2.53655958 9.01953125 4.29296875 C9.78354248 4.7513916 10.54755371 5.20981445 11.3347168 5.68212891 C12.15238525 6.17890137 12.97005371 6.67567383 13.8125 7.1875 C15.0960437 7.96359619 15.0960437 7.96359619 16.40551758 8.75537109 C19.27483666 10.49632935 22.13829933 12.24654784 25 14 C26.07733398 14.65983887 27.15466797 15.31967773 28.26464844 15.99951172 C31.57694291 18.03387609 34.88331262 20.07749853 38.1875 22.125 C39.24493408 22.77621826 40.30236816 23.42743652 41.3918457 24.09838867 C42.36984131 24.70787354 43.34783691 25.3173584 44.35546875 25.9453125 C45.66487427 26.75766357 45.66487427 26.75766357 47.00073242 27.58642578 C49 29 49 29 50 31 C41.32388346 31.02328301 32.64777786 31.04099581 23.97163677 31.05181217 C19.94193599 31.05700634 15.91225675 31.0640402 11.88256836 31.07543945 C7.98571883 31.08639257 4.08888989 31.09230287 0.19202614 31.09487724 C-1.28653474 31.09670929 -2.76509463 31.10028625 -4.24364662 31.10573006 C-12.54601745 31.13505186 -20.74410053 30.96320761 -29 30 C-23.47349666 23.25919575 -17.30550441 17.1928871 -11.125 11.0625 C-10.04403726 9.98656273 -8.96330617 8.91039269 -7.8828125 7.83398438 C-5.25787359 5.21996708 -2.62981372 2.60911404 0 0 Z " fill="#070707" transform="translate(289,118)"/>
<path d="M0 0 C3.72994701 2.70342798 6.79770638 6.22431901 8.859375 10.34765625 C9.83060052 23.87010381 9.83060052 23.87010381 5.859375 29.34765625 C2.17574832 33.51597065 -1.40273562 36.93863105 -7.04296875 37.78125 C-13.23972611 37.78922523 -17.38623078 37.75416797 -22.140625 33.34765625 C-27.16619108 27.95608255 -29.51990173 24.34133479 -29.31640625 16.97265625 C-28.83483785 9.78123475 -27.39223241 5.68547587 -21.92578125 0.7578125 C-15.38616246 -4.40805705 -7.06771321 -3.94378397 0 0 Z " fill="#040404" transform="translate(481.140625,157.65234375)"/>
<path d="M0 0 C0.66 0.33 1.32 0.66 2 1 C-1.63 4.63 -5.26 8.26 -9 12 C-9 7.8407692 -6.75316432 5.85455565 -4 3 C-1.6875 1.125 -1.6875 1.125 0 0 Z " fill="#2A2A2A" transform="translate(907,267)"/>
<path d="M0 0 C0.66 0.33 1.32 0.66 2 1 C-0.97 3.97 -3.94 6.94 -7 10 C-7 7 -7 7 -4.625 4.4375 C-3.75875 3.633125 -2.8925 2.82875 -2 2 C-1.34 1.34 -0.68 0.68 0 0 Z " fill="#D7D7D7" transform="translate(801,238)"/>
</svg>
