<svg width="201" height="229" viewBox="0 0 201 229" fill="none" xmlns="http://www.w3.org/2000/svg">
<path d="M99.8672 0.503906C107.235 2.6476 118.371 10.8634 125.467 14.9665L194.137 54.7218L175.279 65.7507L100.216 22.2851L81.412 33.0133L156.417 76.3721C150.494 80.548 143.859 83.7926 137.656 87.3525C125.321 80.0436 112.851 73.0451 100.444 65.9156L62.6317 43.9839L44.1377 54.7849L119.132 98.134L100.153 109.153C68.9565 90.6117 37.42 72.7832 6 54.8091L99.8672 0.503906Z" fill="black"/>
<path fill-rule="evenodd" clip-rule="evenodd" d="M199.331 65.646L198.565 65.5039C188.685 71.2173 178.773 76.8788 168.858 82.542C147.831 94.5529 126.789 106.571 106.006 119.109L106 227.719C112.249 224.022 118.522 220.386 124.82 216.812V201.135L124.904 173.398C130.062 170.399 135.215 167.375 140.37 164.35C153.943 156.385 167.527 148.412 181.245 140.873L181.234 183.984C187.533 180.48 193.805 176.909 200.05 173.27C200.049 171.123 200.079 166.412 200.119 160.101C200.301 131.06 200.696 68.1608 199.331 65.646ZM181.361 114.789C181.649 108.949 182.064 100.527 180.491 97.6777L124.834 129.918C124.825 130.833 124.773 132.126 124.712 133.629C124.475 139.462 124.11 148.47 125.707 150.946L181.196 118.893C181.21 117.843 181.281 116.416 181.361 114.789Z" fill="black"/>
<path d="M0.121257 65.5039C31.7013 82.9192 62.8983 101.598 94.2213 119.692L94.2067 141.437L18.9742 98.1438L18.95 162.925L31.0271 169.968L94.2067 206.5L94.2164 228.34L0 173.928L0.121257 65.5039Z" fill="black"/>
</svg>
