<svg width="200" height="229" viewBox="0 0 200 229" fill="none" xmlns="http://www.w3.org/2000/svg">
<path d="M123.247 109.082C124.993 111.779 123.999 185.421 123.984 195.363L199.192 152.189V173.829L180.262 184.907C155.006 198.724 129.741 213.381 105 228.503C105.514 192.25 105.053 155.899 105.015 119.636L123.247 109.082Z" fill="black"/>
<path fill-rule="evenodd" clip-rule="evenodd" d="M165.387 38.0761C143.374 25.1385 121.329 12.1825 99.0545 0.0820312C89.0095 5.89222 78.9762 11.845 68.9315 17.8045C47.7433 30.3754 26.5047 42.9762 5 54.332L99.2844 108.713L118.168 97.6302L98.017 86.0804L80.4672 76.1283C86.5084 72.6327 92.5397 69.0615 98.5761 65.4873C111.287 57.9613 124.02 50.4219 136.915 43.5471L174.453 65.2158C176.151 64.229 177.86 63.2567 179.572 62.2833C184.1 59.7078 188.642 57.1243 193.018 54.2427C183.804 48.8997 174.598 43.4895 165.387 38.0761ZM113.577 29.7138C108.337 26.344 101.291 21.8137 98.263 22.3272L43.1445 54.2696C44.0702 54.8272 45.3234 55.668 46.7617 56.633C51.8977 60.079 59.3938 65.1085 62.7639 64.4769C68.5538 61.1319 74.3354 57.7148 80.1224 54.2944C92.7449 46.8339 105.393 39.3582 118.211 32.5834C117.066 31.9568 115.435 30.9082 113.577 29.7138Z" fill="black"/>
<path fill-rule="evenodd" clip-rule="evenodd" d="M12.8183 72.0881C7.41601 69.112 2.96363 66.6591 0.198818 65.082C0.194271 76.3446 0.266461 87.6352 0.338711 98.9354C0.497662 123.796 0.656909 148.702 0 173.457L75.3974 217.075L88.7405 209.184L93.9545 205.997C94.0936 184.234 94.1195 162.472 94.0322 140.709C92.5579 138.097 91.0625 135.245 89.5268 132.316C85.3687 124.386 80.9157 115.894 75.7903 110.08C70.1346 103.664 34.1035 83.8144 12.8183 72.0881ZM31.1343 104.334C26.7628 102.012 22.6588 99.8325 19.207 97.8711L19.2313 162.723L67.5011 190.661L74.3837 186.663C76.2268 183.57 75.7521 159.452 75.4951 146.391C75.4342 143.297 75.3855 140.824 75.3827 139.397C74.9947 138.695 74.6117 137.986 74.2282 137.275C72.0088 133.163 69.7722 129.019 66.4389 126.154L65.2846 125.143C57.2197 118.187 43.164 110.723 31.1343 104.334Z" fill="black"/>
</svg>
