<?xml version="1.0" encoding="utf-8"?>
<!-- Generator: Adobe Illustrator 26.0.3, SVG Export Plug-In . SVG Version: 6.00 Build 0)  -->
<svg version="1.1" id="Layer_1" xmlns="http://www.w3.org/2000/svg" xmlns:xlink="http://www.w3.org/1999/xlink" x="0px" y="0px"
	 viewBox="0 0 1038.4 351.2" style="enable-background:new 0 0 1038.4 351.2;" xml:space="preserve">
<style type="text/css">
	.st0{fill:#141414;}
	.st1{fill:#FFFFFF;}
</style>
<rect class="st0" width="1038.4" height="351.2"/>
<path class="st1" d="M110.4,172c0-15.4,8.2-29.6,21.5-37.2l76.7-44.4l-56.1-31.8L79.8,101c-13.2,7.7-21.3,21.9-21.3,37.1v37.4
	l52,29.4L110.4,172z"/>
<path class="st1" d="M156.7,179.2c0,15.4-8.2,29.6-21.5,37.2l-76.7,44.4l56.1,31.9l72.7-42.6c13.2-7.7,21.3-21.9,21.3-37.2v-37.4
	l-51.9-29.4L156.7,179.2z"/>
<path class="st1" d="M301.6,133.8h17.2c9.5,0,17.2,7.5,17.2,16.7h17.5c0-18.3-15.5-33.3-34.8-33.3h-17.2c-18.9,0-34.4,15-34.4,33.3
	c0,18.6,15.5,33.7,34.4,33.7h17.2c9.5,0,17.2,7.5,17.2,16.7s-7.8,16.7-17.2,16.7h-17.2c-9.4,0-17.2-7.5-17.2-16.7h-17.2
	c0,18.3,15.5,33.3,34.4,33.3h17.2c19.2,0,34.7-15,34.7-33.3s-15.5-33.3-34.8-33.3h-17.2c-9.4,0.1-17.1-7.5-17.2-16.9c0,0,0,0,0-0.1
	C284.4,141.3,292.1,133.8,301.6,133.8z"/>
<polygon class="st1" points="439.4,167.4 387.8,167.4 387.8,117.1 370.6,117.1 370.6,234.1 387.8,234.1 387.8,184.1 439.4,184.1 
	439.4,234.1 456.9,234.1 456.9,117.1 439.4,117.1 "/>
<path class="st1" d="M508.2,117.1L476,179.9v54.2h17.2v-33.3h51.6v33.3h17.5v-54.2l-32.6-62.8L508.2,117.1z M493.2,184.1l26-50.3
	l25.7,50.3H493.2z"/>
<polygon class="st1" points="598.8,175 598.8,117.1 581.4,117.1 581.4,234.1 598.8,234.1 598.8,197.8 617,180.2 655.8,234.1 
	667.8,234.1 667.8,222.5 628.5,169.1 667.8,130.5 667.8,117.1 657.9,117.1 "/>
<path class="st1" d="M755.7,200.8c0,9.1-7.8,16.7-17.2,16.7h-17.2c-9.4,0-17.2-7.5-17.2-16.7v-83.7h-17.2v83.7
	c0,18.3,15.5,33.3,34.4,33.3h17.2c19.2,0,34.7-15,34.7-33.3v-83.7h-17.5V200.8z"/>
<path class="st1" d="M843.9,117.1h-51.6v117h51.6c19.2,0,34.8-15,34.8-33.3v-50.3C878.7,132.1,863.2,117.1,843.9,117.1z
	 M861.1,200.8c0,9.1-7.8,16.7-17.2,16.7h-34.4v-83.7h34.4c9.4,0,17.2,7.5,17.2,16.7V200.8z"/>
<path class="st1" d="M945.2,117.1H928c-18.9,0-34.4,15-34.4,33.3v50.3c0,18.3,15.5,33.3,34.4,33.3h17.2c19.2,0,34.8-15,34.8-33.3
	v-50.3C979.9,132.1,964.4,117.1,945.2,117.1z M962.4,200.8c0,9.1-7.8,16.7-17.2,16.7H928c-9.4,0-17.2-7.5-17.2-16.7v-50.3
	c0-9.1,7.8-16.7,17.2-16.7h17.2c9.5,0,17.2,7.5,17.2,16.7L962.4,200.8z"/>
<path class="st1" d="M301.6,133.8h17.2c9.5,0,17.2,7.5,17.2,16.7h17.5c0-18.3-15.5-33.3-34.8-33.3h-17.2c-18.9,0-34.4,15-34.4,33.3
	c0,18.6,15.5,33.7,34.4,33.7h17.2c9.5,0,17.2,7.5,17.2,16.7s-7.8,16.7-17.2,16.7h-17.2c-9.4,0-17.2-7.5-17.2-16.7h-17.2
	c0,18.3,15.5,33.3,34.4,33.3h17.2c19.2,0,34.7-15,34.7-33.3s-15.5-33.3-34.8-33.3h-17.2c-9.4,0.1-17.1-7.5-17.2-16.9c0,0,0,0,0-0.1
	C284.4,141.3,292.1,133.8,301.6,133.8z"/>
</svg>
