<svg width="298" height="299" viewBox="0 0 298 299" fill="none" xmlns="http://www.w3.org/2000/svg">
<path d="M125.79 145.53C125.791 137.983 127.776 130.569 131.546 124.031C135.316 117.493 140.739 112.061 147.27 108.28L224 63.86L167.9 32L95.1601 74.53C88.6717 78.3204 83.2899 83.745 79.5509 90.2632C75.812 96.7814 73.8464 104.166 73.8501 111.68V149.11L125.79 178.53V145.53Z" fill="#BC561B"/>
<path d="M172.06 152.68C172.065 160.227 170.084 167.642 166.315 174.181C162.546 180.72 157.123 186.151 150.59 189.93L73.8501 234.35L130 266.22L202.74 223.68C209.215 219.879 214.584 214.45 218.313 207.934C222.042 201.417 224.003 194.038 224 186.53V149.11L172.05 119.69L172.06 152.68Z" fill="#BC561B"/>
</svg>
