<svg id="Layer_1" data-name="Layer 1" xmlns="http://www.w3.org/2000/svg" viewBox="0 0 1038.4 351.23"><defs><style>.cls-1{fill:#fff;}</style></defs><path class="cls-1" d="M110.44,172a43,43,0,0,1,21.47-37.24l76.74-44.43L152.54,58.49,79.8,101a43.06,43.06,0,0,0-21.31,37.15v37.42l52,29.42Z"/><path class="cls-1" d="M156.71,179.19a43.05,43.05,0,0,1-21.48,37.25L58.49,260.86l56.11,31.87,72.74-42.55A43,43,0,0,0,208.65,213V175.61l-51.94-29.42Z"/><path class="cls-1" d="M301.56,133.79h17.2c9.45,0,17.21,7.51,17.21,16.66h17.54c0-18.31-15.51-33.34-34.75-33.34h-17.2c-18.9,0-34.42,15-34.42,33.34,0,18.62,15.53,33.65,34.42,33.65h17.2c9.45,0,17.21,7.52,17.21,16.67s-7.76,16.66-17.21,16.66h-17.2c-9.44,0-17.2-7.52-17.2-16.66H267.15c0,18.3,15.53,33.33,34.42,33.33h17.21c19.23,0,34.73-15,34.73-33.32S338,167.44,318.76,167.44h-17.2a17.07,17.07,0,0,1-17.2-17C284.36,141.3,292.12,133.79,301.56,133.79Z"/><polygon class="cls-1" points="439.39 167.44 387.77 167.44 387.77 117.11 370.57 117.11 370.57 234.1 387.77 234.1 387.77 184.1 439.39 184.1 439.39 234.1 456.94 234.1 456.94 117.11 439.39 117.11 439.39 167.44"/><path class="cls-1" d="M508.22,117.12,476,179.87v54.24h17.2V200.78h51.64v33.33h17.53V179.87l-32.56-62.75Zm-15,67,26-50.32,25.65,50.32Z"/><polygon class="cls-1" points="598.82 174.96 598.82 117.11 581.44 117.11 581.44 234.1 598.82 234.1 598.82 197.83 617.03 180.19 655.84 234.1 667.82 234.1 667.82 222.5 628.52 169.07 667.82 130.51 667.82 117.11 657.87 117.11 598.82 174.96"/><path class="cls-1" d="M755.69,200.77c0,9.14-7.76,16.66-17.21,16.66h-17.2c-9.44,0-17.2-7.52-17.2-16.66V117.11H686.87v83.66c0,18.3,15.53,33.33,34.42,33.33H738.5c19.23,0,34.74-15,34.73-33.33V117.11H755.69Z"/><path class="cls-1" d="M843.93,117.11H792.3v117h51.63c19.23,0,34.76-15,34.75-33.32V150.45C878.68,132.14,863.16,117.11,843.93,117.11Zm17.21,83.67c0,9.14-7.76,16.66-17.2,16.66H809.52V133.79h34.42c9.44,0,17.2,7.51,17.2,16.66Z"/><path class="cls-1" d="M945.15,117.11H928c-18.9,0-34.42,15-34.42,33.34v50.32c0,18.3,15.53,33.33,34.42,33.33h17.2c19.24,0,34.75-15,34.75-33.32V150.45C979.9,132.14,964.39,117.11,945.15,117.11Zm17.21,83.67c0,9.14-7.76,16.66-17.21,16.66H928c-9.44,0-17.2-7.52-17.2-16.66V150.45c0-9.15,7.76-16.66,17.2-16.66h17.2c9.45,0,17.21,7.51,17.21,16.66Z"/><path class="cls-1" d="M301.56,133.79h17.2c9.45,0,17.21,7.51,17.21,16.66h17.54c0-18.31-15.51-33.34-34.75-33.34h-17.2c-18.9,0-34.42,15-34.42,33.34,0,18.62,15.53,33.65,34.42,33.65h17.2c9.45,0,17.21,7.52,17.21,16.67s-7.76,16.66-17.21,16.66h-17.2c-9.44,0-17.2-7.52-17.2-16.66H267.15c0,18.3,15.53,33.33,34.42,33.33h17.21c19.23,0,34.73-15,34.73-33.32S338,167.44,318.76,167.44h-17.2a17.07,17.07,0,0,1-17.2-17C284.36,141.3,292.12,133.79,301.56,133.79Z"/></svg>