<svg width="200" height="228" viewBox="0 0 200 228" fill="none" xmlns="http://www.w3.org/2000/svg">
<path fill-rule="evenodd" clip-rule="evenodd" d="M199.592 116.777C199.963 98.9761 200.507 72.865 199.059 65.3398C187.186 72.2639 175.261 79.0805 163.334 85.8979C143.932 96.9877 124.526 108.08 105.34 119.64L105.371 192.322C105.367 195.626 105.279 199.076 105.19 202.582C104.973 211.113 104.747 219.978 105.705 227.887L124.145 217.372V173.979L199.36 130.412C199.372 127.298 199.473 122.461 199.592 116.777ZM180.676 115.801C180.921 109.937 181.31 100.617 179.711 98.3047C161.233 109.165 142.71 119.911 124.141 130.543C124.134 131.441 124.084 132.719 124.025 134.209C123.795 140.041 123.436 149.136 125.031 151.558L180.552 119.451C180.56 118.578 180.614 117.303 180.676 115.801Z" fill="black"/>
<path fill-rule="evenodd" clip-rule="evenodd" d="M136.738 22.0871C124.211 14.6828 111.623 7.43375 98.9739 0.339844C89.4287 5.86586 79.8948 11.457 70.3567 17.0505C48.6534 29.7783 26.9285 42.5187 5 54.5335C15.3989 60.5525 25.8658 66.4773 36.3401 72.4064C57.4063 84.331 78.503 96.2729 99.1388 109.033L118.123 97.9941L100.259 87.7365C98.2869 86.6097 96.318 85.4643 94.348 84.3182C89.7297 81.6314 85.1054 78.9411 80.4168 76.4797C83.4957 74.6654 87.2089 72.3362 91.2601 69.795C104.363 61.5755 121.002 51.1384 131.146 48.7378C136.287 47.5253 141.278 47.7436 146.269 49.6981C153.106 52.3733 159.973 56.6723 166.644 60.848C169.224 62.4636 171.775 64.0607 174.284 65.5381L193.273 54.4995C190.159 52.7285 186.779 50.6113 183.257 48.4046C173.218 42.1148 162.017 35.0978 152.492 33.2954C148.645 32.5679 144.477 32.71 140.446 32.8475C139.237 32.8887 138.041 32.9295 136.869 32.9463L136.738 22.0871ZM108.525 27.6342C106.07 25.6554 101.041 22.4932 98.1013 22.76L43.0508 54.5322C43.3789 54.7282 43.707 54.9241 44.035 55.1201C49.2452 58.2326 54.4527 61.3434 59.7503 64.2225C59.9445 64.2995 60.1355 64.3988 60.3264 64.4981C60.7126 64.699 61.0988 64.8998 61.5109 64.916C64.8625 65.0469 96.8257 45.5549 102.016 42.2617C105.784 39.8707 109.131 37.3148 110.688 32.3581C110.411 30.0253 110.222 28.9971 108.525 27.6342Z" fill="black"/>
<path fill-rule="evenodd" clip-rule="evenodd" d="M12.8183 73.346C7.41601 70.3698 2.96363 67.917 0.198818 66.3398C0.194271 77.6024 0.266461 88.893 0.338711 100.193C0.497662 125.054 0.656909 149.96 0 174.715L75.3974 218.333L88.7405 210.442L93.9545 207.255C94.0936 185.492 94.1195 163.729 94.0322 141.967C92.5579 139.355 91.0625 136.503 89.5268 133.574C85.3687 125.644 80.9157 117.152 75.7903 111.337C70.1346 104.922 34.1035 85.0722 12.8183 73.346ZM31.1343 105.592C26.7628 103.27 22.6588 101.09 19.207 99.1289L19.2313 163.98L67.5011 191.919L74.3837 187.92C76.2268 184.827 75.7521 160.71 75.4951 147.649C75.4342 144.555 75.3855 142.082 75.3827 140.655C74.9947 139.953 74.6117 139.243 74.2282 138.533C72.0088 134.421 69.7722 130.277 66.4389 127.412L65.2846 126.401C57.2197 119.445 43.164 111.98 31.1343 105.592Z" fill="black"/>
</svg>
