<svg width="200" height="230" viewBox="0 0 200 230" fill="none" xmlns="http://www.w3.org/2000/svg">
<path d="M196.772 66.9258L197.623 67.0067C199.938 71.528 198.512 101.557 198.498 108.827L189.252 124.825L198.493 129.889L198.465 172.782L180.012 183.287L180.021 149.775L172.363 145.178L132.253 168.351C129.867 172.786 127.291 177.098 124.8 181.448V215.374L109.384 224.225L107.359 224.926C104.968 220.709 106.323 190.481 106.366 183.334C109.361 177.936 112.493 172.639 115.554 167.303L106.361 162.124L106.366 119.289L124.8 108.703L124.776 142.462L132.211 146.883C143.98 140.266 163.95 131.524 173.224 121.562C175.919 118.665 178.029 113.982 180.012 110.332L180.016 76.7019L196.772 66.9258Z" fill="black"/>
<path d="M100.378 2.92578C106.632 5.80842 112.803 10.0225 118.86 13.5322C94.5819 28.3986 69.7461 42.1389 45.1628 56.2598L63.4866 66.9966C88.2858 53.2473 112.857 38.5872 137.384 24.1253C143.554 27.7711 149.741 31.3736 155.945 34.9328L99.9985 67.3859C93.9434 70.4939 88.0237 74.3866 82.1006 77.8743C94.5538 84.6191 106.83 91.9642 119.161 99.0371L100.507 109.926L7.94531 56.3592L100.378 2.92578Z" fill="black"/>
<path d="M2.10606 66.9258C12.4318 71.7676 22.5353 78.6002 32.5536 84.4241L93.9453 120.187L93.8696 141.45C69.1502 128.35 44.7998 113.167 20.5345 98.8151L20.5014 120.036L93.8932 162.818L93.898 184.232L70.9997 170.997L20.5723 141.715L20.5109 162.674L93.8743 205.422L93.9264 226.926L1.94531 173.419C2.41832 137.948 1.98308 102.407 2.10606 66.9258Z" fill="black"/>
</svg>
