<svg width="200" height="230" viewBox="0 0 200 230" fill="none" xmlns="http://www.w3.org/2000/svg">
<path d="M99.6641 4.87891C105.506 7.04099 111.792 11.5804 117.345 14.7861L154.371 36.2529C130.111 50.071 105.917 64.0622 81.792 78.2266C93.9604 84.9515 106.013 92.0232 118.102 98.9541C111.971 102.476 105.874 106.081 99.8096 109.769C69.9298 91.3534 39.1308 75.0303 9.0625 57.041C39.4318 40.1561 69.4843 22.2692 99.6641 4.87891ZM118.008 36.1348C113.996 33.8884 102.642 25.5352 98.8418 26.3916C81.0813 36.6264 63.4005 47.1749 45.5146 57.082C49.2394 59.2725 61.0849 67.9629 64.667 66.8818C82.4347 56.6283 100.123 46.0748 118.008 36.1348Z" fill="black"/>
<path d="M194.834 67.8867L195.908 68.1159C197.459 73.0945 196.422 82.4223 196.375 87.932C172.737 102.822 148.09 115.959 124.012 129.825V192.137C148.384 179.232 172.503 164.656 196.375 150.433V171.579L180.078 180.988L105.758 223.887V119.34L194.834 67.8867Z" fill="black"/>
<path d="M3.75781 67.8867C34.1131 83.7364 63.9354 102.702 93.7439 120.095L93.7578 224.887L75.591 214.361L75.5817 130.518C69.6404 127.276 63.7779 123.744 57.8876 120.357L57.8551 137.667L57.8644 203.886C51.7238 200.453 45.6435 196.827 39.54 193.281L39.5076 109.649L21.8737 99.3429L21.8412 183.064L3.75781 172.51V67.8867Z" fill="black"/>
</svg>
